<?xml version="1.0" standalone="no"?>
<!DOCTYPE svg PUBLIC "-//W3C//DTD SVG 20010904//EN"
 "http://www.w3.org/TR/2001/REC-SVG-20010904/DTD/svg10.dtd">
<svg version="1.0" xmlns="http://www.w3.org/2000/svg"
 width="1024.000000pt" height="1024.000000pt" viewBox="0 0 1024.000000 1024.000000"
 preserveAspectRatio="xMidYMid meet">
<metadata>
Created by potrace 1.11, written by Peter Selinger 2001-2013
</metadata>
<g transform="translate(0.000000,1024.000000) scale(0.100000,-0.100000)"
fill="#000000" stroke="none">
<path d="M207 8939 c-97 -33 -165 -105 -195 -204 -9 -31 -12 -840 -12 -3465 0
-3277 1 -3428 19 -3495 10 -38 27 -90 38 -115 22 -50 113 -174 146 -201 12 -9
33 -26 46 -38 46 -41 122 -83 193 -109 l73 -27 4730 -2 c3646 -2 4739 0 4770
9 99 30 171 98 205 195 18 55 19 82 17 453 l-2 395 -27 50 c-48 88 -102 134
-187 159 -49 14 -455 16 -4394 16 -2387 0 -4342 2 -4344 3 -1 2 -3 1381 -3
3064 0 2780 -2 3065 -16 3114 -28 95 -85 155 -182 195 -56 23 -63 23 -437 23
-352 0 -384 -1 -438 -20z"/>
<path d="M6790 8305 c-185 -51 -313 -207 -346 -421 -13 -90 2 -177 45 -262 30
-60 28 -57 399 -428 l332 -334 -132 -134 c-73 -74 -347 -352 -610 -618 -262
-266 -528 -536 -592 -600 -63 -65 -120 -118 -126 -118 -6 0 -77 67 -158 150
-199 202 -1127 1143 -1228 1244 -109 110 -147 139 -230 181 -106 52 -182 69
-309 69 -93 0 -123 -4 -196 -27 -48 -16 -108 -41 -133 -58 -26 -16 -48 -29
-50 -29 -15 0 -69 -53 -761 -755 -729 -739 -742 -752 -767 -804 -33 -67 -31
-148 6 -224 23 -49 77 -107 307 -337 313 -313 343 -335 454 -335 109 1 117 7
649 540 267 267 490 485 496 485 6 0 58 -48 116 -107 58 -60 336 -341 617
-626 282 -285 559 -567 617 -625 112 -114 190 -182 209 -182 6 0 11 -3 11 -8
0 -9 77 -44 160 -72 80 -27 244 -34 329 -14 83 20 172 57 237 100 35 23 439
420 1030 1011 l974 973 328 -327 c180 -181 343 -341 361 -357 18 -15 63 -42
100 -60 61 -29 73 -31 171 -30 90 0 116 4 180 28 41 16 93 40 115 54 57 35
129 115 156 170 50 107 49 63 49 1388 0 1112 -2 1246 -16 1295 -28 95 -84 155
-182 195 l-57 24 -1255 -1 c-973 -1 -1265 -4 -1300 -14z"/>
</g>
</svg>
